<svg version="1.1" id="Symbol_Logo" xmlns="http://www.w3.org/2000/svg"
     x="0px" y="0px" viewBox="0 0 640 133.4" style="enable-background:new 0 0 640 133.4;" xml:space="preserve">
<style type="text/css">
	.st0{fill: black;}
</style>
    <g id="Text">
	<path class="st0" d="M629.333,0c-5.867,0-10.667,4.8-10.667,10.667V122.6c0,5.867,4.8,10.667,10.667,10.667S640,128.467,640,122.6
		V10.667C640,4.8,635.2,0,629.333,0z"></path>
        <path id="Shape_1_" class="st0" d="M586.667,26.6C580.8,26.6,576,31.4,576,37.267V122.6c0,5.867,4.8,10.667,10.667,10.667
		s10.667-4.8,10.667-10.667V37.267C597.333,31.4,592.533,26.6,586.667,26.6z"></path>
        <path id="Shape_6_" class="st0" d="M499.2,26.6c-12.267,0-28.267,1.867-39.333,5.6c-3.6,1.333-6.667,4.8-6.667,8.933
		c0,5.2,4.133,9.333,9.333,9.333c0.667,0,1.333-0.133,2-0.267c10.933-2.533,25.2-3.733,37.333-3.733c20,0,29.733,7.333,31.467,20
		C469.6,61.933,448,73.4,448,99.667c0.4,21.2,16.133,33.733,51.733,33.733c43.067,0,54.933-14.267,54.933-52.267
		C554.667,37.533,540.933,26.6,499.2,26.6z M499.733,114.6c-20.133,0-30.4-6.133-30.4-15.733c0-8.133,7.067-13.067,38.133-14.667
		c8.667-0.4,17.333,0,25.867,1.2C533.333,108.333,525.467,114.6,499.733,114.6z"></path>
        <path id="Shape_8_" class="st0" d="M389.2,26.6V10.667C389.2,4.8,384.4,0,378.667,0C372.933,0,368,4.8,368,10.667v68.467
		c0,42.533,15.067,54,54.533,54.133c5.2-0.133,9.467-4.4,9.467-9.733c0-5.2-4.133-9.6-9.333-9.733
		c-17.333-0.267-27.467-4.933-30.667-14c0,0-0.8-2.267-0.933-2.533c-1.2-7.467-1.733-15.067-1.6-22.667V45.4h33.067
		c5.2,0,9.333-4.267,9.333-9.467s-4.133-9.467-9.333-9.467L389.2,26.6z"></path>
        <path id="Shape_2_" class="st0" d="M348.933,44.733c2-2,3.2-4.8,3.067-7.733s-1.2-5.6-3.333-7.6
		c-4.4-3.867-11.067-3.733-15.2,0.533L315.6,47.8c-2,2-3.067,4.667-3.067,7.6S313.6,61,315.6,63c2,2,4.667,3.067,7.6,3.067
		c2.8,0,5.6-1.067,7.6-3.067L348.933,44.733z"></path>
        <path id="Shape_3_" class="st0" d="M333.867,129.667c2,2,4.8,3.2,7.733,3.067c2.933,0,5.6-1.2,7.6-3.333
		c3.867-4.4,3.733-11.067-0.533-15.2L330.8,96.333c-2-2-4.667-3.067-7.6-3.067s-5.6,1.067-7.6,3.067s-3.067,4.667-3.067,7.6
		c0,2.933,1.067,5.6,3.067,7.6L333.867,129.667z"></path>
        <path id="Shape_4_" class="st0" d="M306.267,72.333l-7.6-7.6l-34.8-34.8c-4.133-4.267-10.8-4.4-15.2-0.533
		c-2.133,2-3.333,4.667-3.333,7.6s1.067,5.6,3.067,7.733L283.467,79.8L248.4,114.867c-2,2-3.067,4.667-3.067,7.6
		c0,2.933,1.067,5.6,3.067,7.6c0,0,7.2,7.067,15.067,0l35.2-35.2l7.6-7.6c2-2,3.067-4.667,3.067-7.6S308.267,74.333,306.267,72.333z
		"></path>
        <path id="Shape_5_" class="st0" d="M214.133,109.533c-0.667,0-1.2,0-1.867,0.133c-12.133,2.667-24.533,4-36.933,4
		c-20,0-29.733-7.333-31.333-20c62.4-0.8,85.333-7.2,85.333-33.333C228.933,39.133,213.2,26.6,177.6,26.6
		c-43.067,0-54.933,14.267-54.933,52.267c0,43.467,13.733,54.4,55.467,54.4c13.333-0.133,26-1.6,38.8-5.6
		c3.867-1.2,6.533-4.667,6.533-8.933C223.467,113.667,219.333,109.533,214.133,109.533z M177.333,45.933
		c20.133,0,30.8,4.933,30.8,15.067c0,8.533-9.867,11.733-45.2,13.333L144,75.133C144,51,151.6,45.933,177.333,45.933z"></path>
        <path id="Shape_7_" class="st0" d="M53.333,26.6C10.667,27,0,41.4,0,79c0,0.4,1.067,44,1.067,44
		C1.2,128.733,6,133.4,11.733,133.267h0.8c2.933,0,5.6-1.2,7.6-3.2s3.067-4.8,3.067-7.733l-1.067-41.067c0-2.667,0-5.6,0-5.6
		c0-22.533,7.2-27.467,31.2-27.733c24,0.133,31.2,5.2,31.2,27.733c0,0,0,2.933,0,5.6l-1.067,41.067
		c-0.133,2.933,1.067,5.6,3.067,7.733c2,2,4.8,3.2,7.6,3.2h0.8c5.733,0,10.533-4.533,10.667-10.267c0,0,1.067-43.6,1.067-44
		C106.667,41.4,96,27,53.333,26.6z"></path>
</g>
</svg>
