<?xml version="1.0" encoding="utf-8"?>
<!-- Generator: Adobe Illustrator 25.4.1, SVG Export Plug-In . SVG Version: 6.00 Build 0)  -->
<svg version="1.1" id="Layer_1" xmlns="http://www.w3.org/2000/svg" xmlns:xlink="http://www.w3.org/1999/xlink" x="0px" y="0px"
	 viewBox="0 0 1230 205" style="enable-background:new 0 0 1230 205;" xml:space="preserve">
<style type="text/css">
	.st0{fill-rule:evenodd;clip-rule:evenodd;fill:#FF8300;}
	.st1{fill:#FF8300;}
	.st2{fill-rule:evenodd;clip-rule:evenodd;fill:#B8B7B8;}
	.st3{fill:#B8B7B8;}
	.st4{fill:#B8B7B8;stroke:#B8B7B8;stroke-width:0.7655;}
</style>
<g>
	<path class="st0" d="M218.1,12.4h27.5l78.6,173.9h-18.6c-4.9,0-9.7-0.8-13-3.1c-3.2-2.3-6.5-5.5-8.1-9.4l-11.3-25h-85.1l-11.3,25
		c-1.6,3.9-4.1,7-8.1,9.4c-0.5,0.2-1,0.4-1.5,0.6c-3.4,1.3-6.4,2.5-10.6,2.5h-18.6L218.1,12.4z M260.2,120.1l-29.2-64l-28.4,64
		H260.2z"/>
	<rect x="349.1" y="12.4" class="st1" width="31.1" height="173.9"/>
	<path class="st0" d="M512.1,106.9c-3.2,2.4-6.4,3.9-10.4,5.5l58.6,74H537c-4.8,0-9.6-0.8-13.6-3.1c-4.8-1.6-8-4.7-10.4-8.7
		l-44.1-58.2h-20.9v70h-30.5V12.4h65c7.2,0,14.4,0.8,20.9,3.9c6.4,2.4,12,6.3,16.9,11c4.8,4.7,8,10.2,11.2,16.5
		c2.4,6.3,4,13.4,4,20.5c0,5.5-1.6,11-3.2,16.5l0,0c-2.4,4.7-4.8,9.4-8,14.2C520.9,99.8,516.9,103.7,512.1,106.9z M480.8,40.8h-34.5
		v44.1h34.5c3.2,0,6.4-0.8,8.8-1.6c2.4-0.8,4.8-2.4,7.2-4.7c1.6-1.6,3.2-3.9,4.8-7.1c0.8-2.4,1.6-5.5,1.6-8.7c0-3.1,0-5.5-1.6-8.7
		c-0.8-2.4-2.4-4.7-4.8-7.1c-1.6-1.6-4-3.1-7.2-4.7C487.2,41.5,484,40.8,480.8,40.8z"/>
	<path class="st1" d="M890,95.9c-2.5-2.3-5.9-3.9-8.4-4.6c-2.5-1.5-5.9-2.3-8.4-3.9c-2.5-1.5-5.9-2.3-9.3-3.1
		c-3.4-0.8-5.9-2.3-9.3-3.1c-5.9-1.5-10.9-3.9-15.1-5.4c-4.2-1.5-6.7-3.1-9.3-4.6c-2.5-1.5-4.2-3.1-5-5.4c-0.8-2.3-1.7-4.6-1.7-7
		c0-2.3,0.8-4.6,1.7-7c1.7-2.3,3.4-3.9,5.9-5.4c2.5-1.5,5.1-3.1,8.4-3.9c3.4-0.8,6.7-1.5,10.1-1.5c2.5,0,5,0.8,8.4,1.5
		c3.4,1.5,5.9,3.1,9.3,4.6c3.4,2.3,7.6,3.1,11.8,3.1c5.1,0,10.1-1.5,14.3-4.6l8.4-6.2l-1.7-2.3c-2.5-2.3-5-5.4-8.4-8.5
		c-3.4-3.1-7.6-5.4-11.8-7.7c-4.2-2.3-9.3-4.6-14.3-6.2s-10.9-2.3-16-2.3c-6.7,0-14.3,0.8-21,3.1c-6.7,2.3-12.6,4.6-18.5,8.5
		c-5.1,3.9-9.3,8.5-12.6,14.7c-3.4,5.4-5.1,12.4-5.1,19.3c0,7.7,1.7,14.7,4.2,19.3c3.4,5.4,6.7,10,11.8,13.1
		c5.1,3.9,10.1,7,16.8,9.3c5.9,2.3,11.8,4.6,18.5,7c4.2,1.5,8.4,3.1,12.6,4.6c4.2,1.5,7.6,3.1,10.9,5.4c3.4,2.3,5.9,3.9,7.6,7
		c1.7,2.3,2.5,5.4,2.5,9.3c0,3.9-0.8,7.7-3.4,10.8c-2.5,3.1-5.1,6.2-8.4,7.7c-3.4,2.3-6.7,3.9-10.9,4.6c-9.3,2.3-17.7,2.3-24.4,0
		c-3.4-1.5-6.7-3.1-10.1-5.4l-1.7-1.5c-4.2-3.9-9.3-6.2-16-6.2c-4.2,0-6.7,1.5-9.3,3.1l-9.3,4.6l1.7,2.3c0,0.8,0.8,1.5,0.8,1.5
		c0,0.8,0.8,0.8,0.8,1.5c0.8,2.3,2.5,3.9,3.4,5.4c0.8,0.8,0.8,0.8,0.8,1.5c0.8,0.8,1.7,2.3,2.5,3.9c1.7,2.3,4.2,3.9,5.9,5.4
		c11.8,9.3,26.1,13.9,42.9,13.9c8.4,0,16.8-1.5,24.4-3.9c7.6-2.3,15.1-6.2,21-10.8c5.9-4.6,10.9-10.8,14.3-17
		c3.4-7,5.1-13.9,5.1-21.6C910.2,118.3,903.4,106,890,95.9z"/>
	<path class="st1" d="M68.3,98.6c-0.8-0.8-0.8-0.8-0.8-1.6c0.8-0.8,0.8-0.8,1.7-1.6l65.4-83.1h-24.8c-5,0-9.9,0.8-14.1,3.1
		c-4.1,2.3-7.5,4.7-10.8,8.5L35.1,87.7c-0.8,1.6-1.7,2.3-2.5,3.1V13.2H1.2v173.2h31.5v-83.1c0.8,0.8,1.7,1.6,2.5,3.1L89,174.7
		c2.5,3.9,5.8,7,10.8,8.5c4.1,2.3,9.1,3.1,14.1,3.1h24L68.3,98.6z"/>
	<path class="st0" d="M750.8,134.9c6.4-15.4,8.8-32.4,4.8-49.3C753.2,74,748.4,64,742,54.7c8-5.4,14.4-9.2,14.4-9.2
		S729.2,0.8,667.4,0v16.2c-5.6,0-12,0.8-17.6,1.5c-27.3,5.4-48.9,21.6-61,43.2c-8.8-4.6-15.2-7.7-15.2-7.7s-28.9,43.9-1.6,96.3
		l15.2-7.7c4,7.7,9.6,15.4,16,21.6l-12,11.6c0,0,29.7,30.8,75.4,30.1c44.9-0.8,81-23.9,98.6-63.2L750.8,134.9z M685.1,17.7
		c28.1,4.6,45.7,23.9,45.7,23.9s-21.7,12.3-25.7,16.2c-10.4-7.7-20-10-20-10V17.7z M581.6,125.6l27.3-13.9c0,0-2.4-9.2,0.8-21.6
		c-6.4-1.5-27.3-14.6-27.3-14.6S573.6,99.4,581.6,125.6z M630.5,82.5c-2.4-1.5-8-4.6-15.2-7.7c8-13.9,22.5-24.7,40.9-28.5
		c4-0.8,8-1.5,12-1.5v16.2c0,0,21.6-1.5,35.3,17.7c0.6-0.4,1.5-1,2.5-1.7v0l0,0c2.9-1.9,7.2-4.8,11.9-7.6c4,6.2,7.2,13.1,8.8,20.8
		c2.4,11.6,0.8,23.1-3.2,33.1l-16-6.2c0,0-5.6,14.6-23.3,21.6c0,0-24.9,10.8-45.7-8.5l-12,11.6c-4-3.9-8-8.5-11.2-13.9l15.2-7.7
		C630.5,120.2,619.3,102.5,630.5,82.5z M617.7,173.4c0,0,26.5,20.8,67.4,13.1c30.5-6.2,47.3-23.1,56.9-37.8l-28.9-11.6
		c0,0-9.6,14.6-34.5,20c0,0-22.5,3.9-39.3-5.4C637,155.7,617.7,173.4,617.7,173.4z"/>
	<path class="st2" d="M948.6,14v170.8h65.1c7.9,0,15.9-0.8,23-3.1c7.1-2.4,14.3-4.7,20.6-8.6c6.3-3.9,11.9-7.8,17.5-13.3
		c5.6-5.5,9.5-11,13.5-17.2c4-6.3,6.3-13.3,8.7-20.4l0,0c2.4-7,3.2-14.9,3.2-22.7c0-7.8-0.8-15.7-3.2-22.7l0,0
		c-2.4-7-4.8-14.1-8.7-20.4c-4-6.3-7.9-11.7-13.5-17.2c-5.6-5.5-11.1-9.4-17.5-13.3c-6.3-3.9-13.5-6.3-20.6-8.6
		c-7.1-2.3-15.1-3.1-23-3.1H948.6z M1037.5,156.6c-7.9,3.1-15.9,4.7-24.6,4.7l-41.3-0.8v-123h41.3c8.7,0,17.5,1.6,24.6,4.7
		c7.1,3.1,14.3,7.8,19.8,13.3c5.6,5.5,10.3,12.5,13.5,19.6c3.2,7.8,4.8,15.7,4.8,24.3c0,8.6-1.6,16.4-4.8,24.3
		c-3.2,7-7.9,14.1-13.5,19.6C1051.8,148.8,1045.4,153.5,1037.5,156.6z"/>
	<path class="st3" d="M948.6,184.8h-2.4v2.4h2.4V184.8z M948.6,14v-2.4h-2.4V14H948.6z M1088.3,142.5l2,1.3L1088.3,142.5z
		 M1097,122.1l2.2,0.8l0-0.1l0-0.1L1097,122.1z M1097,122.1l-2.3-0.8l0,0.1l0,0.1L1097,122.1z M1097,76.7l-2.3,0.6l0,0.1l0,0.1
		L1097,76.7z M1097,76.7l2.3-0.6l0-0.1l0-0.1L1097,76.7z M1088.3,56.3l-2,1.3L1088.3,56.3z M1074.8,39.1l1.7-1.7L1074.8,39.1z
		 M1036.7,17.2l-0.7,2.3L1036.7,17.2z M1012.9,161.3l0,2.4h0V161.3z M1037.5,156.6l-0.9-2.2L1037.5,156.6z M971.6,160.5h-2.4v2.3
		l2.3,0L971.6,160.5z M971.6,37.5v-2.4h-2.4v2.4H971.6z M1037.5,42.2l1-2.2L1037.5,42.2z M1057.4,55.6l1.7-1.7l0,0L1057.4,55.6z
		 M1070.8,75.1l2.2-0.9l0,0l0,0L1070.8,75.1z M1070.8,123.7l2.2,1l0,0l0,0L1070.8,123.7z M1057.4,143.3l-1.7-1.7L1057.4,143.3z
		 M951,184.8V14h-4.8v170.8H951z M1013.7,182.4h-65.1v4.8h65.1V182.4z M1036,179.4c-6.8,2.2-14.5,3-22.3,3v4.8
		c8.1,0,16.3-0.8,23.8-3.3L1036,179.4z M1056.1,171c-6.1,3.7-12.9,6-20.1,8.4l1.5,4.5c7.1-2.3,14.5-4.8,21.1-8.9L1056.1,171z
		 M1073.1,158c-5.4,5.3-10.8,9.1-17,13l2.5,4c6.4-4,12.2-8,17.9-13.6L1073.1,158z M1086.3,141.2c-3.9,6.2-7.8,11.5-13.2,16.8
		l3.3,3.4c5.7-5.7,9.8-11.3,13.8-17.7L1086.3,141.2z M1094.8,121.4c-2.4,7.1-4.7,13.9-8.5,19.9l4,2.5c4.1-6.5,6.6-13.9,9-20.9
		L1094.8,121.4z M1094.7,121.6L1094.7,121.6l4.6,1.2l0,0L1094.7,121.6z M1097.8,99.4c0,7.7-0.8,15.2-3.1,22l4.5,1.5
		c2.5-7.4,3.3-15.5,3.3-23.5H1097.8z M1094.8,77.5c2.3,6.7,3.1,14.3,3.1,22h4.8c0-8-0.8-16.1-3.3-23.5L1094.8,77.5z M1094.7,77.3
		L1094.7,77.3l4.6-1.2l0,0L1094.7,77.3z M1086.3,57.6c3.8,6,6.1,12.8,8.5,19.9l4.5-1.5c-2.4-7-4.8-14.3-9-20.9L1086.3,57.6z
		 M1073.1,40.8c5.4,5.3,9.2,10.6,13.2,16.8l4-2.5c-4-6.4-8.1-12-13.8-17.7L1073.1,40.8z M1056.1,27.8c6.3,3.9,11.7,7.7,17,13
		l3.3-3.4c-5.7-5.7-11.5-9.7-17.9-13.6L1056.1,27.8z M1036,19.4c7.2,2.4,14.1,4.6,20.1,8.4l2.5-4c-6.6-4.1-14.1-6.5-21.1-8.9
		L1036,19.4z M1013.7,16.4c7.8,0,15.5,0.8,22.3,3l1.5-4.5c-7.5-2.5-15.7-3.3-23.8-3.3V16.4z M948.6,16.4h65.1v-4.8h-65.1V16.4z
		 M1012.9,163.7c9,0,17.3-1.6,25.5-4.9l-1.7-4.4c-7.7,3-15.3,4.5-23.7,4.5V163.7z M971.6,162.9l41.3,0.8l0.1-4.8l-41.3-0.8
		L971.6,162.9z M969.2,37.5v123h4.8v-123H969.2z M1012.9,35.2h-41.3v4.8h41.3V35.2z M1038.5,40.1c-7.5-3.3-16.6-4.9-25.6-4.9v4.8
		c8.5,0,16.9,1.5,23.7,4.5L1038.5,40.1z M1059,53.9c-5.8-5.7-13.2-10.6-20.6-13.8l-1.9,4.4c6.9,3,13.8,7.6,19.1,12.8L1059,53.9z
		 M1073,74.2c-3.3-7.3-8.2-14.6-14-20.3l-3.3,3.4c5.3,5.3,9.9,12.1,13,18.9L1073,74.2z M1078,99.4c0-8.9-1.6-17.1-4.9-25.2l-4.4,1.8
		c3.1,7.6,4.6,15.1,4.6,23.4H1078z M1073.1,124.6c3.3-8.1,4.9-16.2,4.9-25.2h-4.8c0,8.3-1.5,15.8-4.6,23.4L1073.1,124.6z M1059,145
		c5.8-5.7,10.7-13,14-20.3l-4.3-2c-3.1,6.8-7.7,13.6-13,18.9L1059,145z M1038.4,158.8c8.3-3.3,14.9-8.2,20.6-13.8l-3.3-3.4
		c-5.4,5.3-11.5,9.8-19,12.8L1038.4,158.8z"/>
	<path class="st4" d="M1194.7,43c-3.2-2.3-6.3-3.9-9.5-5.5c-3.2-1.6-6.3-2.3-8.7-2.3c-4,0-7.1,0.8-11.1,1.6
		c-3.2,0.8-6.3,2.3-8.7,3.9c-2.4,1.6-4.8,3.9-6.3,6.3c-1.6,2.3-2.4,5.5-2.4,7.8c0,3.1,0.8,6.3,1.6,8.6c1.6,2.4,3.2,4.7,5.6,6.3
		c2.4,1.6,5.6,3.9,9.5,5.5c4,1.6,8.7,3.1,14.3,5.5c3.2,1.6,5.6,2.4,8.7,3.1c3.2,0.8,5.6,2.3,7.9,3.1c2.4,0.8,5.6,2.4,7.9,3.9
		c2.4,1.6,5.6,3.1,7.1,4.7c11.9,9.4,18.3,21.1,18.3,36.8c0,7.8-1.6,14.9-4.8,21.1c-3.2,6.3-7.1,11.7-12.7,16.4
		c-5.6,4.7-11.9,7.8-19.1,11c-7.1,2.4-14.3,3.9-22.2,3.9c-15.9,0-28.6-4.7-38.9-13.3c-2.4-1.6-4-3.9-5.6-5.5c-1.6-1.6-3.2-3.9-4-5.5
		c-1.6-1.6-2.4-3.1-3.2-4.7c-0.8-1.6-1.6-2.4-2.4-3.9l5.6-3.1c3.2-1.6,6.3-3.1,9.5-3.1c5.6,0,9.5,1.6,13.5,5.5l2.4,1.6
		c3.2,2.4,6.3,4.7,10.3,5.5c4,1.6,7.9,2.4,12.7,2.4c4,0,7.9-0.8,11.9-2.4c4-1.6,7.9-3.1,11.1-5.5c3.2-2.4,6.3-5.5,8.7-8.6
		c2.4-3.9,3.2-7.8,3.2-12.5c0-4.7-0.8-8.6-3.2-11.7c-2.4-3.1-4.8-5.5-7.9-7.8c-3.2-2.4-7.1-3.9-11.1-5.5c-4-1.6-7.9-3.1-11.9-4.7
		c-5.6-2.4-11.9-4.7-17.5-7c-5.6-2.4-11.1-5.5-15.1-8.6c-4.8-3.9-7.9-7.8-11.1-13.3c-2.4-5.5-4-11.7-4-18.8s1.6-13.3,4.8-18.8
		c3.2-5.5,7.1-10.2,11.9-14.1c4.8-3.9,10.3-6.3,16.7-8.6c6.3-2.3,12.7-3.1,19.1-3.1c4.8,0,9.5,0.8,14.3,2.3
		c4.8,1.6,8.7,3.9,13.5,6.3c4,2.3,7.9,5.5,11.1,7.8c3.2,3.1,6.3,5.5,7.9,8.6l-6.3,4.7c-3.2,3.1-7.1,3.9-11.9,3.9
		C1201,46.2,1197.8,44.6,1194.7,43z"/>
</g>
</svg>
