<svg width="80" height="34" viewBox="0 0 80 34" fill="none" xmlns="http://www.w3.org/2000/svg">
<g clip-path="url(#clip0_2433_48538)">
<path d="M79.1037 16.8421C79.1037 25.9368 71.7293 33.3053 62.6406 33.3053H17.3594C8.27068 33.3053 0.89624 25.9368 0.89624 16.8421C0.89624 7.74737 8.27068 0.372932 17.3594 0.372932H62.6406C71.7293 0.372932 79.1037 7.74737 79.1037 16.8361V16.8421Z" fill="white"/>
<path d="M15.7714 12.6556C15.7714 11.3203 15.2962 9.92481 14.2677 9.92481C11.9579 9.92481 11.1759 15.5489 11.1759 18.8632V19.2541C13.985 18.0812 15.7714 15.6632 15.7714 12.6556Z" fill="#423EF4"/>
<path d="M66.5925 14.5023C65.7023 13.9008 64.5895 13.606 63.2541 13.606C62.4181 13.606 61.6602 13.7444 60.9865 14.0271C60.3128 14.2917 59.7774 14.6346 59.3865 15.0556L60.2406 10.7789H68.0421V7.81955H57.6782L56.0782 18.382H59.3624C59.609 17.7985 60.0301 17.3173 60.6196 16.9323C61.209 16.5474 61.9008 16.3489 62.7008 16.3489C63.6632 16.3489 64.4571 16.6737 65.0767 17.3233C65.7203 17.9729 66.0391 18.8571 66.0391 19.9639C66.0391 21.0707 65.7203 21.9368 65.0767 22.6586C64.4511 23.3805 63.6451 23.7414 62.6466 23.7414C61.7203 23.7414 60.9444 23.4947 60.3248 23.0015C59.6993 22.4902 59.3083 21.8586 59.1519 21.1008H55.8135C55.9038 22.1594 56.2226 23.1098 56.7759 23.9519C57.3474 24.782 58.1173 25.4316 59.0977 25.9068C60.0962 26.382 61.2812 26.6226 62.6526 26.6226C64.0241 26.6226 65.1248 26.3338 66.1233 25.7504C67.1399 25.1669 67.9218 24.3789 68.4752 23.3744C69.0466 22.3699 69.3293 21.2271 69.3293 19.9399C69.3293 18.815 69.1008 17.7744 68.6376 16.8241C68.1744 15.8556 67.5008 15.0797 66.6105 14.5023H66.5925Z" fill="#423EF4"/>
<path d="M39.1338 14.7429C36.7639 14.7429 35.5248 16.397 35.3624 18.7368C35.7774 18.406 36.385 18.1293 37.3714 18.1293H42.5805C42.5805 16.2286 41.2571 14.7429 39.1338 14.7429Z" fill="#423EF4"/>
<path d="M63.1579 0H16.8421C7.54286 0 0 7.53684 0 16.8421C0 26.1474 7.54286 33.6842 16.8421 33.6842H63.1579C72.4571 33.6842 80 26.1414 80 16.8421C80 7.54286 72.4571 0 63.1579 0ZM13.8226 26.2977C12.4992 26.2977 11.4947 25.8586 10.7368 25.1128C8.78195 23.4767 8.78797 19.597 8.80601 18.797C8.80601 18.7008 8.80601 18.6526 8.80601 18.6526L8.85414 17.6421C8.85414 17.606 8.85414 17.5699 8.85414 17.5338V17.4977C9.09474 12.8962 10.6346 7.89173 14.2496 7.89173C16.7278 7.89173 18.0391 9.87068 18.0391 12.5113C18.0391 16.9083 15.2842 20.1684 11.4105 21.5338C11.7714 23.0376 12.5233 24.1504 13.9188 24.1504C15.3143 24.1504 16.6195 22.9233 17.4556 21.1729L19.0436 22.3459C18.0391 24.794 16.1744 26.2977 13.8105 26.2977H13.8226ZM23.0677 25.8406H20.3128V12.7579H23.0677V25.8406ZM21.6902 10.1414C20.6436 10.1414 19.8737 9.39549 19.8737 8.46316C19.8737 7.53083 20.6436 6.78496 21.6902 6.78496C22.7368 6.78496 23.5368 7.53083 23.5368 8.46316C23.5368 9.39549 22.7669 10.1414 21.6902 10.1414ZM29.1549 25.8406H26.4V15.0135H24.391V12.7519H26.4V12.0361C26.4 9.1188 28.3007 7.8797 30.4782 7.8797C31.2241 7.8797 31.9639 8.01805 32.5414 8.29474V10.3338H32.4872C32.0481 10.1414 31.5789 10.0331 31.1098 10.0331C29.1549 10.0331 29.1549 11.7113 29.1549 12.3188V12.7579H32.7639V15.0195H29.1549V25.8466V25.8406ZM45.2752 20.1383H36.9804C36.2105 20.1383 35.5789 20.2466 35.5789 21.0466C35.5789 22.394 37.203 23.8015 39.7113 23.8015C42.2195 23.8015 43.9519 22.809 44.7218 21.9549H44.7759L44.7519 24.3549C43.9519 25.1008 42.1353 26.2556 39.5429 26.2556C35.4647 26.2556 32.6256 23.4707 32.6256 19.3143C32.6256 15.4045 35.4647 12.3429 39.3444 12.3429C42.0511 12.3429 44.0541 13.8165 44.9023 16.0301C45.1729 16.7338 45.2692 17.4917 45.2692 18.2436V20.1444L45.2752 20.1383ZM62.5564 30.5744C54.9714 30.5744 48.818 24.4211 48.818 16.8361C48.818 9.25113 54.9714 3.09774 62.5564 3.09774C70.1413 3.09774 76.2947 9.25113 76.2947 16.8361C76.2947 24.4211 70.1413 30.5744 62.5564 30.5744Z" fill="#423EF4"/>
</g>
<defs>
<clipPath id="clip0_2433_48538">
<rect width="80" height="33.6842" fill="white"/>
</clipPath>
</defs>
</svg>
