<?xml version="1.0" encoding="utf-8"?>
<!-- Generator: Adobe Illustrator 25.4.1, SVG Export Plug-In . SVG Version: 6.00 Build 0)  -->
<svg version="1.1" id="Layer_1" xmlns="http://www.w3.org/2000/svg" x="0px"
	 y="0px"
	 viewBox="0 0 2000 377.5" style="enable-background:new 0 0 1811.3 377.5;" xml:space="preserve">
<style type="text/css">
	.st0{fill:#FF5C5C;}
</style>
    <g id="Text">
	<path class="st0" d="M1781.1,0c-16.7,0-30.1,13.5-30.2,30.2V347c-0.3,16.7,13,30.4,29.6,30.7c16.7,0.3,30.4-13,30.7-29.6
		c0-0.4,0-0.7,0-1.1V30.2C1811.2,13.5,1797.7,0,1781.1,0z"/>
        <path id="Shape" class="st0" d="M1660.3,75.3c-16.6,0.1-30.1,13.5-30.2,30.2V347c-0.3,16.7,13,30.4,29.6,30.7
		c16.7,0.3,30.4-13,30.7-29.6c0-0.4,0-0.7,0-1.1V105.5C1690.5,88.8,1677,75.3,1660.3,75.3z"/>
        <path id="Shape-2" class="st0" d="M1412.8,75.3c-34.7,0-80,5.3-111.3,15.8c-10.2,3.8-18.9,13.6-18.9,25.3
		c-0.1,14.5,11.6,26.3,26.1,26.4c0.1,0,0.2,0,0.3,0c1.9-0.1,3.8-0.3,5.7-0.8c30.9-7.2,71.3-10.6,105.7-10.6
		c56.6,0,84.2,20.8,89.1,56.6c-180.4-12.8-241.5,19.6-241.5,94c1.1,60,45.7,95.5,146.4,95.5c121.9,0,155.5-40.4,155.5-147.9
		C1569.8,106.2,1530.9,75.3,1412.8,75.3z M1414.3,324.3c-57,0-86-17.4-86-44.5c0-23,20-37,107.9-41.5c24.5-1.1,49,0,73.2,3.4
		C1509.4,306.6,1487.1,324.3,1414.3,324.3L1414.3,324.3z"/>
        <path id="Shape-3" class="st0" d="M1101.5,75.3V30.2c0-16.6-13.6-30.2-29.8-30.2c-16.6,0.2-30,13.6-30.2,30.2V224
		c0,120.4,42.6,152.8,154.3,153.2c14.9-0.4,26.8-12.6,26.8-27.5c0-14.7-11.7-27.2-26.4-27.5c-49-0.8-77.7-14-86.8-39.6
		c0,0-2.3-6.4-2.6-7.2c-3.4-21.2-4.9-42.7-4.5-64.1v-82.7h93.6c14.8-0.3,26.6-12.5,26.3-27.3c-0.3-14.4-11.9-26-26.3-26.3
		L1101.5,75.3z"/>
        <path id="Shape-4" class="st0" d="M987.5,126.6c5.8-5.8,9-13.7,8.7-21.9c-0.4-8.3-3.4-15.8-9.4-21.5c-12.4-11.1-31.4-10.4-43,1.5
		l-50.6,50.6c-11.9,11.7-12.1,30.8-0.4,42.7c5.8,5.9,13.6,9.1,21.9,9c8,0,15.8-3.1,21.5-8.7L987.5,126.6z"/>
        <path id="Shape-5" class="st0" d="M944.9,367c12.1,11.8,31.4,11.5,43.2-0.5c0.1-0.1,0.2-0.2,0.2-0.2c11.1-12.4,10.4-31.4-1.5-43
		l-50.6-50.6c-12.2-11.5-31.5-10.9-43,1.3c-11,11.7-11,30,0,41.7L944.9,367z"/>
        <path id="Shape-6" class="st0" d="M866.8,204.7l-21.5-21.5l-98.5-98.5c-11.6-11.9-30.6-12.6-43-1.5c-6,5.5-9.4,13.3-9.4,21.5
		c-0.1,8.1,3,16,8.7,21.9l99.2,99.2L703,325.1c-11.6,12-11.6,31,0,43c0,0,20.4,20,42.6,0l99.6-99.6l21.5-21.5
		c5.7-5.7,8.8-13.5,8.7-21.5C875.6,217.7,872.4,210.1,866.8,204.7z"/>
        <path id="Shape-7" class="st0" d="M606,310c-1.8-0.1-3.5,0.1-5.3,0.4c-34.3,7.5-69.4,11.3-104.5,11.3c-56.6,0-84.1-20.8-88.7-56.6
		c176.6-2.3,241.5-20.4,241.5-94.3c-1.1-60-45.7-95.5-146.4-95.5c-121.9,0-155.5,40.4-155.5,147.9c0,123,38.9,154,157,154
		c37.7-0.4,73.6-4.5,109.8-15.9c13.9-4.2,21.7-18.9,17.5-32.8C628,317.4,617.7,309.9,606,310z M501.9,130c57,0,87.2,14,87.2,42.6
		c0,24.1-27.9,33.2-127.9,37.7l-53.6,2.3C407.5,144.3,429,130,501.9,130z"/>
        <path id="Shape-8" class="st0" d="M150.9,75.3C30.2,76.4,0,117.2,0,223.6c0,1.1,3,124.5,3,124.5c0.4,16.3,13.9,29.3,30.2,29.1h2.3
		c8.1,0,15.9-3.3,21.5-9.1c5.7-5.9,8.8-13.7,8.7-21.9l-3-116.2v-15.9c0-63.8,20.4-77.7,88.3-78.5c67.9,0.4,88.3,14.7,88.3,78.5V230
		l-3,116.2c-0.4,8.3,3,15.9,8.7,21.9c5.7,5.7,13.4,9,21.5,9.1h2.3c16.2,0,29.8-12.8,30.2-29.1c0,0,3-123.4,3-124.5
		C301.9,117.2,271.7,76.4,150.9,75.3z"/>
</g>
</svg>
